<svg xmlns="http://www.w3.org/2000/svg" viewBox="0 0 256 256" width="256" height="256">
<defs><linearGradient id="g" x1="0" y1="0" x2="1" y2="1"><stop offset="0" stop-color="#DB2777"/><stop offset="1" stop-color="#F472B6"/></linearGradient></defs>
<rect width="256" height="256" rx="64" fill="url(#g)"/>
<circle cx="200" cy="56" r="64" fill="#ffffff" fill-opacity="0.08"/>
<g transform="translate(56 56) scale(6)" fill="none" stroke="#ffffff" stroke-width="1.75" stroke-linecap="round" stroke-linejoin="round"><path d="m4.6 13.11 5.79-3.21c1.89-1.05 4.79 1.78 3.71 3.71l-3.22 5.81C8.8 23.16.79 15.23 4.6 13.11Z"/><path d="m10.5 9.5-1-2.29C9.2 6.48 8.8 6 8 6H4.5C2.79 6 2 6.5 2 8.5a7.71 7.71 0 0 0 2 4.83"/><path d="M8 6c0-1.55.24-4-2-4-2 0-2.5 2.17-2.5 4"/><path d="m14.5 13.5 2.29 1c.73.3 1.21.7 1.21 1.5v3.5c0 1.71-.5 2.5-2.5 2.5a7.71 7.71 0 0 1-4.83-2"/><path d="M18 16c1.55 0 4-.24 4 2 0 2-2.17 2.5-4 2.5"/></g>
</svg>
